<?xml version="1.0" encoding="UTF-8"?>
<svg xmlns="http://www.w3.org/2000/svg" version="1.1" viewBox="0 0 595.3 841.9">
  <!-- Generator: Adobe Illustrator 30.4.0, SVG Export Plug-In . SVG Version: 2.1.4 Build 226)  -->
  <defs>
    <style>
      .st0 {
        fill: #1d1d1b;
      }

      .st1 {
        fill: #fff;
      }
    </style>
  </defs>
  <g id="corpo">
    <polygon class="st0" points="437 405.8 440 406.3 448.1 405.9 440.5 408.6 453 407.4 439.8 411 448.2 410.8 438.8 413.5 444.6 413.8 455.5 413.4 439.8 416.8 447.1 417 450.9 417.8 451 419 453.9 419.9 446 422 456.1 422.2 443.5 424.5 444.2 425.7 453.1 426.2 444.2 428 443 429.2 444.7 430.3 447.6 431.4 446.7 432.6 452.1 433.7 443.9 435 444.9 436.2 452.3 437.3 442.1 438.5 454.2 439.8 440 440.7 445.2 442 449.3 443.3 443.9 444.3 442.6 445.4 444.6 446.7 454 448.5 447.7 449.3 451.4 450.8 445.6 451.5 439.9 452 450.1 454.3 444 454.8 444.5 456.1 441.1 456.8 447.6 458.9 446.8 460 448.5 461.5 448.8 462.8 450.1 464.2 454.6 466.3 453.3 467.3 438.7 465.7 442.6 467.7 445.1 469.4 450.7 471.9 443.5 471.5 450.9 474.5 438 472.6 450.8 477.1 445.9 477.1 443.9 477.8 447 479.9 437.1 478.3 448.1 482.8 446.1 483.5 438.7 482.4 433.4 482 439 485 436.8 485.5 447.7 490.6 444.9 490.9 435.5 488.8 439.6 491.6 430.2 489.2 433.6 491.8 428.7 491.1 439.4 496.7 442.5 499.4 437.3 498.5 442.8 502.2 435.1 500.1 439.9 503.6 439 504.6 439.2 506.1 425.8 500.9 426 502.3 424.5 502.8 436.8 510.5 429.2 507.8 425.6 507.2 436.8 514.7 433.5 514.3 421.2 508.7 432.3 516.5 427 514.8 430.7 518.4 422.9 515.1 431.5 521.8 424.1 518.6 417.7 515.9 428.7 524.5 424.6 523.2 414.9 518.1 424 525.8 418.5 523.4 424.2 528.9 417.2 525.3 416.4 526.2 416.9 528.1 421.6 533.1 423.1 535.9 420.2 535.2 418.3 535.3 415.8 534.8 416.7 537.2 417.1 539.1 410.6 535.2 409.4 535.7 405.5 533.9 407.9 537.5 411.7 542.6 403.6 536.7 410.8 545.1 405.4 541.7 401.2 539.3 401.9 541.5 404.3 545.6 408 551.1 406.5 551.4 397.5 543.7 404.3 552.7 399.1 548.8 395 546.1 392.9 545.4 401.1 556.5 391.7 547.6 392.5 550.3 398.1 558.8 394.2 556 395.8 559.9 390.2 554.8 387.7 553.6 387.8 555.6 391.4 562.4 384.6 555.2 389.4 563.8 386 561.2 387.9 566 384.4 563 377.8 555.6 384.1 567 380 563.1 379.4 564.3 382.5 571.3 376.2 563.6 380.3 572.5 372 561.2 370.3 560.6 371.1 564.3 374.6 572.7 368.2 563.7 373 574.9 369.2 570.5 368.9 572.5 369.3 575.8 366 572.1 366.7 576.1 364.5 574.5 362.3 572.7 363.1 577.2 364.2 582.4 358.6 573.2 357.6 573.7 360.1 582.6 359.2 583.6 353.7 573.5 355 579.8 355.7 585 349.3 571.9 348 571.6 347 572.2 348.6 579.9 344.4 571.6 345.3 577.7 343.1 574.6 343.4 579.5 343.9 585 343.5 587.9 339.6 579.2 339.4 582.8 335.8 574.2 338 586.5 336.7 586.7 334.2 581.4 335.2 590.5 333.8 590.1 329.7 577.7 330.1 584.8 328.8 584.7 328.4 588.5 326.9 587.3 326.5 591.9 324.1 585.2 322.8 584.7 321.7 585 321.8 593.7 319 583 318.8 590.1 316.7 583.8 316.6 592.4 314.4 584.1 313 581.8 312.8 591.4 311.7 593.8 310.1 589.4 308.5 583.4 308.1 595.3 306.8 594.4 305.5 593.6 304 585.7 302.9 588.2 301.8 592.8 300.5 592.8 299.2 579.6 298.1 592.8 296.9 592.2 295.8 585 294.3 597.4 293.5 582.7 292.1 588.3 290.8 590.1 290.1 580.9 288.7 586.1 287.9 580.3 286.7 580.9 284.6 592 283 595.1 283.1 582.6 281 591 280.9 581.7 279.1 586.6 278.4 583.2 277.8 579.2 276.4 580.8 274.3 586.3 272.4 590.2 271.3 589.6 271.5 581.8 268.6 590.4 268.2 586.4 266.3 589.3 264.2 593.1 264.3 587.3 263.7 584.6 260.6 591.9 259.3 591.9 260.6 582 257.5 589.1 258.8 579.7 257.5 579.9 257.2 577.1 254.2 582.8 255.7 574.2 252.7 579.8 252.7 575.8 251 577.2 251.6 572 247.5 580.1 246.7 578.9 245.6 578.3 241.9 584.7 246.5 569.7 245.1 570.1 240.9 577.2 240.8 574.4 238.9 575.9 235.5 580.5 236.2 575.9 238.6 568 234.9 573.2 233.1 574.1 236.1 565.3 230.4 574.1 229.7 572.9 232.7 564.6 230.3 566.7 226.1 572 224.9 571.6 224.3 570.1 220.2 574.9 224.3 565.5 221.6 567.7 219.3 569.1 221.1 563.9 219.5 564.2 221.6 558.8 219.1 560.4 214.5 565.3 216.5 560.1 214.4 561.2 217 555.4 207.8 566.4 215.1 554.1 212.9 555.2 205 563.9 205.9 560.6 210.4 552.8 200.8 563.2 207.9 552.3 205.8 553 208.1 548.3 200.2 556 198.1 556.6 195.7 557.5 199.3 551.6 199.2 549.8 199.5 547.7 190.9 555.3 198.9 544.9 201 541 190.3 550.5 197.1 541.7 187.5 549.8 191.1 544.5 193.7 540.3 193.1 539.2 187.1 543.3 188 540.8 188 539.1 190.9 534.9 191.3 533 185.9 536.3 178.3 541.3 186 533 187.7 530 178.5 536.2 183.3 530.7 185.2 527.7 179.1 531 174.2 533.3 174.6 531.4 173.1 531 178.1 525.8 171.9 528.8 170.7 528.2 167.9 528.6 171.8 524.4 175.3 520.5 175.4 519.1 172.7 519.4 164 523.6 176.9 513.9 168.8 517.6 174.1 513 168.8 514.8 162.5 517.1 173.2 509.5 170.4 509.7 168.6 509.5 158.6 513.6 164.1 509.2 166.1 506.7 163.2 506.9 171.9 501.2 162.9 504.4 164.8 502.1 164.2 501.1 161.4 501.1 154.7 502.9 160.2 499.1 160.1 497.8 155.3 498.5 159.1 495.6 162.9 492.7 158.8 493.1 157.4 492.4 152 493.2 162.6 487.9 162 486.9 156.9 487.5 162 484.4 163 482.9 157.3 483.6 151.3 484.3 161.5 479.8 153.4 481.1 149 481.2 155.9 477.9 151.4 477.9 159.6 474.4 149.3 476 150.3 474.5 158.4 471.2 145.5 473.1 143.9 472.2 143.4 471.1 148.9 468.6 155.4 466 147.8 466.3 153.6 464 148.9 463.6 150.4 462.2 155.7 460 143.8 460.8 140.4 460.1 145.2 458.1 155.7 455.4 148 455.3 145.1 454.4 145.5 453.2 151.1 451.3 152.9 450 153.3 448.8 141.9 448.6 146.8 447 147 445.7 151.2 444.3 139.2 443.8 151.8 441.9 152 440.8 152.7 439.6 156 438.4 153 437.3 146.7 436.2 149 435 154.2 433.8 149.9 432.6 148.1 431.4 152 430.3 143 428.8 150.7 428 142.3 426.3 153.3 425.8 142.6 423.9 146.3 422.9 149.6 422 140.7 420 143 418.9 144.2 417.8 151.6 417.5 156.1 416.9 146.1 414.4 151.8 414 147 412.1 154.7 412.1 151 410.3 155.7 409.9 154.3 408.5 141.6 404.9 152.5 405.7 148.6 403.7 155.9 404.1 144.2 400.3 159.7 402.6 159.2 401.3 147.6 397.3 152.4 397.2 159.3 397.8 158.5 396.5 158 395.1 148.5 391.1 154.9 391.8 156.7 391.1 153.3 388.8 155.5 388.2 154.9 386.8 147.8 383.1 157 385 159.6 384.7 151.6 380.5 161.6 382.9 160 381.1 158.1 379 157.4 377.4 159.5 377 151.7 372.4 166.4 377.5 165.6 375.8 162.5 373.2 162.8 372 159.4 369.1 155.7 366 163.3 368.3 166.3 368.5 159.2 363.6 160.5 362.9 172.6 367.9 171.5 366 170.4 364.1 161.9 358 165 358.3 171.4 360.7 163.5 354.6 169.4 356.7 174.8 358.7 175.8 357.9 166.3 350.5 166.7 349.3 173.3 352.2 177.8 353.7 173.4 349.3 170.9 346.2 180.5 351.4 168.3 341.3 181.1 349.1 184.3 350 184.3 348.6 185.4 348 183.7 345.3 184.9 344.8 173.7 334.3 182 339.4 180.1 336.3 179.2 334 182.8 335.5 190.6 340.6 186.9 335.8 186.5 333.9 189.7 335.2 187.4 331.5 191.2 333.4 191.1 331.7 195.3 334.1 196.5 333.7 194.8 330.5 189.9 323.8 189.9 322 188.7 319 196.1 325 201.9 329.6 200.2 326 200.1 324.2 203.4 326.1 203.5 324.5 201.9 320.9 201.4 318.5 206.3 322.5 201.1 314.2 205.1 317.4 200 308.9 200.7 307.8 202 307.3 211.4 317.9 206 308.6 214.3 318 212.3 313.2 210.9 309.1 215 312.9 214.9 310.6 218.3 313.7 214.8 306.2 215.6 305.3 221.7 312.7 222.7 312.2 216 298.8 221.1 305 223.8 307.2 221.9 301.5 222.2 299.7 227 305.8 227.4 304.2 226.3 299.4 227.2 298.7 225.8 293.1 226.3 291.4 231.9 300 232.2 297.8 237.1 305.4 236.3 301.1 235.5 296.4 233.5 288.8 239.1 298.7 240.3 298.6 237.1 287.5 239.4 289.9 241.5 292 241.1 287.6 246.1 297.3 246.8 295.9 247.8 295.3 245.8 285.8 249.6 293.2 251.4 295 253.8 298.5 250.5 284.3 253.8 290.6 255 290.4 254.6 285 257.6 291.1 258.9 291.5 257.2 280.2 261.1 290.4 262.5 291.1 264.2 293.2 262.7 281.4 265.2 287 267.1 290.5 267.8 287.7 268.3 283.9 269.2 282.5 272.3 292.9 272.1 284.8 274.7 293.4 275.7 292.2 276.4 289.1 278.1 293 279.2 292.8 280.1 290.4 280.3 282.4 282.4 290.4 282.9 283.5 283.5 277.4 286 292.1 286.5 284.1 288.1 290.4 289 286.2 290.1 282.8 291.6 290.6 292.7 289.6 293.7 282.2 295 287.8 296.1 279.9 297.3 289.5 298.5 286.1 299.8 276 300.9 282.4 301.9 289.2 303.6 275.3 304.4 284.3 306 278.9 306.6 288 308 284.7 308.6 292.2 311.2 275.8 311.1 290.2 313.2 280.9 313.5 288.7 316.2 276.6 317.4 277.5 317.7 284.3 319.6 279.3 321.2 277.3 319.9 293.3 320.8 294.5 323.8 284.6 324.1 289.4 326 285.7 325.1 295.8 330 278.6 330.7 281.3 330.5 287.5 329.7 295.9 335 279.6 332.4 294.8 334.9 289.7 335.3 292.8 337.4 289.5 339.6 286.2 337.4 297.8 341.5 288.4 340.6 295.2 344.2 287.8 344.8 289.9 343.7 296.8 345.2 296.3 345.4 298.9 350.6 288.4 352.2 287.6 354.1 286.1 354.9 287.6 354.6 291.6 355.8 292 357.1 292 357.6 294 359.7 292.2 357.1 300.9 358.2 301.3 360.8 298.5 360.9 301 361.1 303.3 365.4 297.4 365.5 299.8 369.9 294 368.3 299.6 371.1 297 371.8 298.3 369.6 304.8 367.7 310.5 369.2 310 375.1 302.4 376.9 301.8 372.2 311.7 377.6 305.3 373.5 314 375.7 312.6 382 305.2 382.5 306.8 382.4 309.1 380.9 313.3 386.2 307.7 382.1 315.6 389.1 308 384.3 316.5 387.7 313.9 386.1 318 388.1 317.4 390.3 316.5 391.9 316.5 389.8 320.9 389.4 323.2 388.2 326.4 393.7 321.7 400.8 315.4 394.4 324.5 403.1 316.6 394.6 327.7 397.5 326.3 398.3 327.1 397.5 329.7 403 325.7 406.3 324 406.5 325.6 406.8 327.1 407.8 327.8 410.4 327 407 331.9 405.2 335.1 411.8 330.8 402.8 340.5 416.2 330.2 409.5 337.6 404.9 343.1 411.7 338.9 411.2 340.8 409.6 343.6 419.6 337.1 413.3 343.6 416.9 342.3 412.3 347.4 413 348.3 411.8 350.5 416.5 348.6 418.9 348.3 421.9 347.6 426.9 345.6 420.5 351.5 416.8 355.3 416.5 356.9 423.2 353.9 421.6 356.4 426.7 354.6 426.6 356 419.7 361.6 423.7 360.6 424 361.8 432.3 358.4 428.2 362 424 365.7 431.8 362.8 435.6 362.2 435.6 363.6 424.5 370.6 432.4 367.9 434.5 368.3 440.9 366.5 437.3 369.6 431.2 373.8 431.9 374.7 434.3 374.9 437.3 374.9 440.2 375 442.8 375.3 432.7 380.7 436.3 380.6 431.5 383.7 444.9 379.8 437.9 383.7 434.8 386.1 431.4 388.5 447.6 384.2 436.8 389.1 444.8 387.7 446.2 388.6 444.4 390.5 441.9 392.5 449.8 391.4 451.1 392.3 439.1 397 441.1 397.6 451.4 396.2 441.4 400 443.9 400.6 440 402.7 452.3 401.2 437 405.8"/>
  </g>
  <g id="occhio_dx">
    <ellipse class="st0" cx="398.8" cy="411.9" rx="23" ry="33.7"/>
    <ellipse class="st1" cx="402.9" cy="411.9" rx="11.6" ry="21.2"/>
    <ellipse class="st0" cx="398.8" cy="421.1" rx="7" ry="12"/>
  </g>
  <g id="occhio_sx">
    <ellipse class="st0" cx="197.6" cy="434.6" rx="23" ry="33.7"/>
    <ellipse class="st1" cx="197.6" cy="434.6" rx="11.6" ry="21.2"/>
    <ellipse class="st0" cx="193.6" cy="441.4" rx="7" ry="12"/>
  </g>
  <g id="bocca">
    <ellipse class="st1" cx="306.6" cy="465.5" rx="41.9" ry="36" transform="translate(-45.4 33.3) rotate(-5.8)"/>
  </g>
</svg>