<?xml version="1.0" encoding="UTF-8"?>
<svg xmlns="http://www.w3.org/2000/svg" version="1.1" viewBox="0 0 595.3 841.9">
  <!-- Generator: Adobe Illustrator 30.4.0, SVG Export Plug-In . SVG Version: 2.1.4 Build 226)  -->
  <defs>
    <style>
      .st0 {
        fill: #1d1d1b;
      }

      .st1 {
        fill: #fff;
      }
    </style>
  </defs>
  <g id="corpo">
    <polygon class="st0" points="406.4 420.9 411.4 420.6 415.8 420.5 407 422.9 415.3 422.2 414.3 423.2 406.9 425 413.1 424.9 410.6 426 405.4 427.2 415.6 427 414 427.9 408.4 429.1 413.8 429.5 409 430.4 414.3 431 406.1 431.9 413.3 432.5 408 433.3 407.4 433.9 408.9 434.7 413 435.6 409.4 436.1 415.8 437.3 407.9 437.4 406 437.9 414.7 439.6 411.8 440 413.4 441 414.2 441.9 412.3 442.3 417.1 443.9 407.1 442.9 408.5 443.9 415.8 446.1 415.8 447 408.9 446.2 408.4 446.8 403.9 446.5 403.7 447.1 405.7 448.3 407.6 449.6 407.2 450.2 404.8 450.3 413.7 453.9 405.3 451.9 408.9 453.9 402.1 452.3 412.7 456.9 411.2 457.2 405.1 455.6 412.9 459.5 405.5 457.3 405.2 458 407.2 459.7 401.9 458.1 406.8 461.1 401.2 459.3 402.2 460.6 406.2 463.4 403.1 462.7 406.3 465.2 405.8 465.8 401.5 464.3 398.5 463.4 404.2 467.5 402.1 467.1 399.9 466.7 398.8 466.9 395.5 465.7 398.3 468.3 398 468.9 405.1 474.4 400.8 472.5 403.9 475.5 395.7 470.9 403.1 476.9 401.9 477 398.1 475.3 395.9 474.5 398.6 477.5 398 478 392.8 474.9 390.1 473.7 398.2 481.1 389.8 475.3 393.6 479.3 389.7 477 390.1 478.3 391.2 480.2 393.1 482.8 387.9 479.2 393.3 485 389.9 482.9 393.5 487.3 385.9 481.3 388.4 484.6 388.7 485.9 385.9 484.2 389.7 489 382 482.3 388.1 489.6 387.9 490.5 388.1 491.8 387.7 492.5 381.5 486.9 384.3 491.1 379.4 486.8 383.1 491.9 382.8 492.7 382 493 382.7 495 378.3 490.9 377.6 491.3 378.9 494 379.7 496.1 379.1 496.6 380.2 499.2 380.3 500.5 375.5 495.7 378.9 501.3 375.7 498.3 371.9 494.5 376.8 502.4 376 502.6 374 501.1 368.3 494.4 368.2 495.5 369.1 498.1 373.5 505.8 371.4 504.1 370.1 503.6 365.1 497.3 370.7 507.2 366.5 502.1 367.3 504.7 364.9 502.3 364.5 503 361.2 499 361.4 500.8 366.1 510 364.7 509.3 359.1 501 361.7 507 363.6 511.9 359.4 506 358.6 506.1 358.2 506.9 360.2 512.2 356.8 507.5 354.4 504.5 355.2 507.5 352.4 503.7 354.8 510 351.4 504.9 355.2 514.2 355.2 516.1 352.3 511.6 349.9 508.3 350.9 512.3 348.5 508.7 350.5 514.9 346.3 507.5 348.9 515.1 345.2 508.5 346.7 513.8 346.8 516 344.5 512.5 345.3 516.4 343.3 513.4 344.3 517.9 344.4 520.2 340.4 512 340.5 514.3 341.7 519.8 337.8 511.3 339.4 517.8 340 521.7 335.5 511.2 334.9 511.5 336.3 518.1 336.6 521.4 334.8 518.3 335.7 523.5 332.7 516.6 333.7 522.1 330.5 514.3 329.3 513 329.3 515.4 329.9 520.1 330.6 525.3 328.5 520.6 327.1 518.4 327 521 325.1 516.6 325.6 521.3 325.2 523 324.7 524 322 516 322.1 519.6 321.3 519.7 320.3 518.5 319 516.2 318.3 516.3 319.3 524.3 318.1 522.4 318.3 526.9 315.9 518.6 316.2 524.1 315 522.1 313.9 520.1 313.3 521 313.8 527.7 312.1 522.8 312.3 528.4 311.4 527.2 309.8 521.9 310.1 529.3 307.9 519.4 308.3 527.5 307.7 528.7 306.6 526 306.2 528.7 305.4 528.4 304 523 302.9 519.6 303.2 530 301.5 520.9 301.1 523.7 300.1 521.5 299.8 525.8 299 526.2 298.3 526.3 297.9 531.5 296.4 519.3 295.9 524.4 295.3 525.7 294.7 529.6 293.8 525.5 292.9 523.6 292.4 530.3 291.6 526.8 290.9 529 290 522.9 289.3 530.4 288.5 522.2 287.8 521.5 287.1 521.8 286.3 531.4 285.6 524.1 284.8 525.8 284.1 525.1 283.5 521.4 282.8 520.7 281.6 530.3 281 527.1 280.4 524.8 279.3 531.2 278.7 528.3 277.9 528.2 276.9 531.3 277.1 519.7 276.2 521.9 275 527.3 274.9 519.5 273.7 524.6 272.8 525.7 272.9 518.7 272 519.6 270.9 523.2 270.1 523.5 268.7 528.1 267.8 529 267 529.4 266.1 529.9 267.1 519.1 264.9 528 264.9 523.2 263.4 527.6 264 519.7 262.4 524.4 261.7 523.9 261 523.6 259.9 525.5 259.6 523.2 258.1 526.7 258.7 520.2 258.9 516.4 257.4 519.6 256 522.1 256.9 515.4 255.1 519.8 255.4 515.7 252.2 524.6 252 522.6 250.2 526.1 252.7 515 250.1 521.1 250.4 517.4 250.7 514.1 247.2 522.7 246.8 521.6 246.8 519.1 246.9 516.4 245 519.7 243.5 521.7 246 512.5 245 513.3 240.6 522.7 240.5 520.9 242.1 514.9 241 515.5 240.9 513.8 238.2 518.4 239.8 512.9 239.2 512.4 238.5 512.2 234.5 519.2 234.3 517.7 233.8 517 236.1 510.6 235.5 510.1 231 517.5 232.2 513.4 232.4 511.5 233 508.8 230.8 511.2 231.1 509.3 230.5 508.8 225.5 516.1 227.1 511.8 225.5 512.9 224.6 513 225.7 509.7 222.4 513.5 225.4 507.4 223.7 508.7 223.4 507.8 226.2 502.3 220.1 509.9 222.5 505.2 222.5 504 219.6 506.7 223.5 500.2 218.8 505.2 215.1 508.7 218.5 503.2 213.9 507.7 215.6 504.4 214 505.2 211.9 506.4 211.2 506 210.9 505.1 216.4 497.9 216.8 496.4 210.6 501.9 210.2 501.2 210.8 499.5 209.8 499.4 212.1 496.2 214.6 492.7 212 494.2 206.8 498 207.7 496.2 207.1 495.7 210.8 491.6 211.3 490.2 209.9 490.5 203.5 494.7 207.7 490.4 203.3 492.8 202.9 492.2 204.7 489.9 204.2 489.4 200.6 491 208.2 484.9 203.6 487.1 203.9 486.1 199.7 487.8 198.1 487.9 204.8 483 200.1 484.9 206 480.7 197.6 484.5 196.7 484.1 195.8 483.7 198.9 481.3 195.7 482 194.1 481.9 195.2 480.5 196.4 479.1 198.5 477.4 201.4 475.4 202.8 474.1 194.3 476.7 199.2 474 194.2 475 197.3 473.2 191.5 474.3 195.2 472.3 190.5 472.9 196.5 470.4 193.4 470.5 192.3 470 194 468.7 197.2 467.2 196.2 466.7 199.8 465.3 193.3 465.8 200.2 463.8 194.1 464.2 198.3 462.8 196.2 462.4 191.9 462.2 195.1 461.1 191 460.8 191.8 459.9 199.1 458.6 193.3 458.3 194.1 457.5 191.3 456.9 190.4 456.1 187.8 455.4 194.6 454.6 199.6 453.9 190.5 453 196.5 452.5 192.7 451.6 194.6 451 197.3 450.4 197.8 449.8 188.8 448.2 187.1 447.2 190.6 446.8 198.5 447.1 191 445.3 188.7 444.2 188 443.2 187.6 442.3 196.9 443.3 200.5 443.3 191.7 440.7 190.1 439.6 198.3 440.7 195.9 439.4 192.7 437.8 193.6 437.2 201.1 438.6 192 435.2 191.1 434 199.6 436 193.4 433.1 192.4 432 191.2 430.7 199.2 432.8 193.8 430 198.6 431 197.1 429.6 193.5 427.3 201.3 429.8 201.9 429.3 204.7 429.8 201.8 427.6 202.9 427.4 197.9 424.2 203.4 426.1 203 425.1 197.4 421.3 197.1 420.3 204.9 423.6 199.8 420 200.9 419.7 203.4 420.3 205.8 420.9 200.2 416.7 202.9 417.4 209.1 420.4 199.5 413.4 202.2 414.2 202 413.2 208.8 416.8 209.2 416.2 203.9 411.7 202.9 410 208.9 413.4 208.6 412.2 213 414.6 204.8 407.5 205.7 407.2 205.6 406.1 215.5 413 209.6 407.4 208.7 405.7 208.4 404.3 208.2 403.2 213 406.3 216.4 408.3 210.7 402.2 218.2 408 216.7 405.6 211.4 399.7 218.5 405.4 213.7 399.8 215.2 400.2 221.4 405.2 218.8 401.7 222.6 404.4 215 395.6 216.8 396.4 223.8 402.6 224.9 402.8 220.2 396.7 222.5 398 218.4 392.5 219 392 225.4 398 226.4 398.1 224.3 394.5 224.5 393.6 224.7 392.7 228.1 395.6 223.3 388.6 225.7 390.3 225.1 388.4 228.5 391.5 225.6 386.5 226.8 386.9 234 395.1 233.3 392.9 233.7 392.2 234.5 392.1 232 387.4 233.8 388.8 234.1 387.9 232.4 384 234.3 385.5 235.2 385.4 234.9 383.6 239.8 389.8 240.7 389.9 240.9 388.8 235.2 378.6 236.9 379.8 239.3 382.2 242.4 385.9 240.4 381.2 243.7 385.2 244 384.3 245.1 384.8 241.5 377 244.7 381 245.6 381.2 248.3 384.5 245.9 378.6 244.9 375.2 249 381.3 245.4 372.8 246.2 372.7 251.3 380.9 248 372.8 248.6 372.4 254.2 382 255.2 382.4 254.7 379.8 251.8 371.8 252.4 371.3 254.9 374.9 256.9 377.4 258.1 378.5 256.2 372.3 259.3 377.6 256.3 368.6 258.4 371.8 261.7 377.6 262.5 377.8 260 369.6 263.1 375.4 260.4 366.4 265.3 377 263.4 370.1 265.2 372.8 264.9 369.7 264.7 367.1 266.5 369.8 268 371.6 266.4 365 270.4 374.2 269.3 368.6 268.7 364.5 272.7 374.3 271.6 368.5 270.9 363.7 274.5 372.9 272.1 362.5 273.3 363.8 273.8 362.8 275.3 365 275.7 363.8 278.5 371.2 278.9 369.8 278.2 364.1 278.8 363.4 280.4 366.6 280.3 363.4 283.3 372.4 283.1 368.4 282.3 361.8 283.6 364 284.8 365.8 285.5 365.7 285.9 364 288 370.2 287 361.8 288.8 367 288.3 360.4 288.9 359.4 290.1 362 290.6 360.7 293 369.8 293 365.2 292.8 359.6 293.6 359.6 295.1 364.4 295.9 364.9 297 367.3 297.4 365 297.6 360.7 298.5 362.2 299.3 362.8 299.4 356.7 301.4 367.4 301.2 359.4 302.4 363.2 303.4 365.6 303.5 359 304.3 359.4 304.9 357.6 305.8 359.1 306.9 364.4 307.6 363 308.3 362.4 308.9 361.2 309.6 359.7 310.4 360.1 311.3 364.4 311.7 356.1 312.9 367.6 313.3 356.7 314.3 368.2 314.8 356.2 315.6 358 316.4 360.1 317.2 362.5 317.9 367.8 318.7 356.1 319.4 362.9 320.2 357.1 320.9 359.7 321.6 363.5 322.2 365.5 323.3 357.9 323.9 361.3 324.3 367.5 325.4 361.6 325.9 365.5 326.8 363 327.7 360.1 328.2 363.7 329.5 357.4 329.3 368.3 330.3 364.9 330.7 368.4 331.8 364.6 332.9 361.7 332.8 368.7 334.1 364.2 334.4 367.2 336.3 358.9 336.2 364.8 337.7 359.9 337 369.5 337.8 369 339.1 365 339.7 366.2 340.8 364.1 340.7 368.9 341.8 366.6 343.5 361.7 343.8 364 343.5 369.2 345.2 364.9 344.7 370.3 345.8 369 346.2 370.3 349.6 359.3 347.6 370.3 349.4 366.4 349.9 367.2 351.3 364.8 351.1 368.6 353.4 362.9 352.3 369.6 354.4 364.9 352.8 373.1 356.1 364.5 357 364.4 355.4 371.8 357.9 366.4 357.7 369.3 359.7 365.9 361.1 364.3 359.3 371.4 362.4 365 363 365.7 363 367.9 363.5 368.6 364.4 368.6 365.8 367.1 363.1 375.5 366.2 370 364.3 376.4 369.7 365.9 367.2 373.3 368.3 372.6 367.8 375.4 370.2 372.2 368 378.3 372.2 371.5 374.6 368.5 370.7 377.7 374.7 371.6 372.4 377.6 373.3 377.3 377.3 371.7 376.2 375.3 376.6 376 378.7 373.9 375.9 380.2 377.1 379.5 380.7 375.1 377.3 382 382.2 375.6 383.6 374.8 385.1 374 379.2 384.1 383.5 379.1 380.6 384.6 386.8 377.1 386 379.6 382.5 385.6 383.1 385.9 383.2 387 390.5 378.9 385.8 386 385.8 387 392.1 380.6 390.7 383.5 388.2 387.6 393.8 382.4 395.2 382 389 389.8 394.6 384.9 389 391.8 390 391.9 391.5 391.4 395.1 388.8 394.6 390.4 394.3 391.6 391.9 394.8 391.8 395.8 397 392.2 395.8 394.3 398.5 392.9 399.1 393.4 395 397.7 404.1 391.4 394.8 399.6 404.1 393.5 397.6 399.1 402.1 396.8 400.5 398.9 405 396.7 403.3 398.8 407.3 397.1 398 403.9 398.5 404.4 408.8 399 399.2 405.6 399.9 405.9 400.5 406.3 402.5 406.1 406 405.1 402.4 407.7 400.7 409.3 405.7 407.7 402 410.2 406.5 408.9 411.2 407.7 404.4 411.4 404.3 412.2 402.8 413.5 404.9 413.4 410.5 412.2 405.3 414.8 414.2 412.6 405 416.3 410.9 415.3 404.4 417.9 408.6 417.5 416.3 416.2 405.3 419.8 410.5 419.3 406.4 420.9"/>
  </g>
  <g id="occhio_dx">
    <ellipse class="st0" cx="398.2" cy="420.9" rx="23" ry="33.7"/>
    <ellipse class="st1" cx="402.3" cy="420.9" rx="11.6" ry="21.2"/>
    <ellipse class="st0" cx="405.3" cy="413.3" rx="7" ry="12"/>
  </g>
  <g id="occhio_sx">
    <ellipse class="st0" cx="197" cy="443.6" rx="23" ry="33.7"/>
    <ellipse class="st1" cx="197" cy="443.6" rx="11.6" ry="21.2"/>
    <ellipse class="st0" cx="200.1" cy="435.8" rx="7" ry="12"/>
  </g>
  <g id="bocca">
    <ellipse class="st1" cx="308.7" cy="468.9" rx="26.1" ry="2.9" transform="translate(-45.7 33.5) rotate(-5.8)"/>
  </g>
</svg>